<mxfile host="app.diagrams.net" agent="Mozilla/5.0 (Macintosh; Intel Mac OS X 10_15_7) AppleWebKit/537.36 (KHTML, like Gecko) Chrome/131.0.0.0 Safari/537.36" version="25.0.3">
  <diagram name="Page-1" id="2YBvvXClWsGukQMizWep">
    <mxGraphModel dx="1026" dy="691" grid="1" gridSize="10" guides="1" tooltips="1" connect="1" arrows="1" fold="1" page="1" pageScale="1" pageWidth="850" pageHeight="1100" math="0" shadow="0">
      <root>
        <mxCell id="0" />
        <mxCell id="1" parent="0" />
        <mxCell id="CObYJEAy56xA2G8EUnc1-17" value="" style="endArrow=none;dashed=1;html=1;rounded=0;exitX=0.38;exitY=0.1;exitDx=0;exitDy=0;exitPerimeter=0;entryX=0.999;entryY=0.859;entryDx=0;entryDy=0;entryPerimeter=0;" parent="1" edge="1" target="0QtaSWrWx8qJe-UsxeRv-7" source="CObYJEAy56xA2G8EUnc1-19">
          <mxGeometry width="50" height="50" relative="1" as="geometry">
            <mxPoint x="130" y="540" as="sourcePoint" />
            <mxPoint x="540" y="540.34" as="targetPoint" />
          </mxGeometry>
        </mxCell>
        <mxCell id="0QtaSWrWx8qJe-UsxeRv-9" value="" style="endArrow=none;dashed=1;html=1;rounded=0;exitX=0;exitY=0.418;exitDx=0;exitDy=0;exitPerimeter=0;entryX=1;entryY=0.646;entryDx=0;entryDy=0;entryPerimeter=0;" parent="1" edge="1" target="jOP6vSnSLnWGBxUfSvqk-17">
          <mxGeometry width="50" height="50" relative="1" as="geometry">
            <mxPoint x="120" y="460" as="sourcePoint" />
            <mxPoint x="490" y="460" as="targetPoint" />
          </mxGeometry>
        </mxCell>
        <mxCell id="0QtaSWrWx8qJe-UsxeRv-10" value="redirectToInternshipListPage(internshipList)" style="html=1;verticalAlign=bottom;endArrow=open;dashed=1;endSize=8;curved=0;rounded=0;" parent="1" edge="1">
          <mxGeometry x="-0.0028" relative="1" as="geometry">
            <mxPoint x="409.5" y="440" as="sourcePoint" />
            <mxPoint x="154.83666666666662" y="440" as="targetPoint" />
            <mxPoint as="offset" />
          </mxGeometry>
        </mxCell>
        <mxCell id="CObYJEAy56xA2G8EUnc1-1" value="S&amp;amp;C" style="shape=umlLifeline;perimeter=lifelinePerimeter;whiteSpace=wrap;html=1;container=1;dropTarget=0;collapsible=0;recursiveResize=0;outlineConnect=0;portConstraint=eastwest;newEdgeStyle={&quot;edgeStyle&quot;:&quot;elbowEdgeStyle&quot;,&quot;elbow&quot;:&quot;vertical&quot;,&quot;curved&quot;:0,&quot;rounded&quot;:0};" parent="1" vertex="1">
          <mxGeometry x="360" y="40" width="100" height="560" as="geometry" />
        </mxCell>
        <mxCell id="ODIJXYlx-aS8_YNGp8-O-1" value="" style="html=1;points=[[0,0,0,0,5],[0,1,0,0,-5],[1,0,0,0,5],[1,1,0,0,-5]];perimeter=orthogonalPerimeter;outlineConnect=0;targetShapes=umlLifeline;portConstraint=eastwest;newEdgeStyle={&quot;curved&quot;:0,&quot;rounded&quot;:0};" parent="CObYJEAy56xA2G8EUnc1-1" vertex="1">
          <mxGeometry x="45" y="68" width="10" height="25" as="geometry" />
        </mxCell>
        <mxCell id="ODIJXYlx-aS8_YNGp8-O-2" value="" style="html=1;points=[[0,0,0,0,5],[0,1,0,0,-5],[1,0,0,0,5],[1,1,0,0,-5]];perimeter=orthogonalPerimeter;outlineConnect=0;targetShapes=umlLifeline;portConstraint=eastwest;newEdgeStyle={&quot;curved&quot;:0,&quot;rounded&quot;:0};" parent="CObYJEAy56xA2G8EUnc1-1" vertex="1">
          <mxGeometry x="45" y="148" width="10" height="419" as="geometry" />
        </mxCell>
        <mxCell id="CObYJEAy56xA2G8EUnc1-6" value="" style="shape=umlLifeline;perimeter=lifelinePerimeter;whiteSpace=wrap;html=1;container=1;dropTarget=0;collapsible=0;recursiveResize=0;outlineConnect=0;portConstraint=eastwest;newEdgeStyle={&quot;curved&quot;:0,&quot;rounded&quot;:0};participant=umlActor;" parent="1" vertex="1">
          <mxGeometry x="145" y="40" width="20" height="560" as="geometry" />
        </mxCell>
        <mxCell id="CObYJEAy56xA2G8EUnc1-7" value="Student" style="text;html=1;align=center;verticalAlign=middle;resizable=0;points=[];autosize=1;strokeColor=none;fillColor=none;" parent="1" vertex="1">
          <mxGeometry x="90" y="50" width="60" height="30" as="geometry" />
        </mxCell>
        <mxCell id="CObYJEAy56xA2G8EUnc1-8" value="" style="edgeStyle=elbowEdgeStyle;fontSize=12;html=1;endArrow=blockThin;endFill=1;rounded=0;" parent="1" edge="1">
          <mxGeometry width="160" relative="1" as="geometry">
            <mxPoint x="155.10000000000002" y="105" as="sourcePoint" />
            <mxPoint x="409.5" y="105" as="targetPoint" />
            <Array as="points">
              <mxPoint x="270" y="105" />
            </Array>
          </mxGeometry>
        </mxCell>
        <mxCell id="CObYJEAy56xA2G8EUnc1-9" value="requestSearchPage()" style="text;html=1;align=center;verticalAlign=middle;resizable=0;points=[];autosize=1;strokeColor=none;fillColor=none;" parent="1" vertex="1">
          <mxGeometry x="210" y="80" width="140" height="30" as="geometry" />
        </mxCell>
        <mxCell id="CObYJEAy56xA2G8EUnc1-15" value="&lt;b&gt;Interaction&lt;/b&gt;&amp;nbsp;Internship Search" style="shape=umlFrame;whiteSpace=wrap;html=1;pointerEvents=0;width=190;height=30;" parent="1" vertex="1">
          <mxGeometry x="80" width="920" height="620" as="geometry" />
        </mxCell>
        <mxCell id="CObYJEAy56xA2G8EUnc1-19" value="else" style="text;html=1;align=center;verticalAlign=middle;resizable=0;points=[];autosize=1;strokeColor=none;fillColor=none;" parent="1" vertex="1">
          <mxGeometry x="100" y="540" width="50" height="30" as="geometry" />
        </mxCell>
        <mxCell id="CObYJEAy56xA2G8EUnc1-24" value="redirectToInternshipListPage(emptyList, message)" style="html=1;verticalAlign=bottom;endArrow=open;dashed=1;endSize=8;curved=0;rounded=0;" parent="1" edge="1">
          <mxGeometry x="-0.0028" relative="1" as="geometry">
            <mxPoint x="410.24" y="580" as="sourcePoint" />
            <mxPoint x="155.75219512195122" y="580" as="targetPoint" />
            <mxPoint as="offset" />
          </mxGeometry>
        </mxCell>
        <mxCell id="HJIBpvxVfIBrpGYPyr1l-3" value="redirectToRequestPage()" style="html=1;verticalAlign=bottom;endArrow=open;dashed=1;endSize=8;curved=0;rounded=0;" parent="1" edge="1">
          <mxGeometry relative="1" as="geometry">
            <mxPoint x="409.5" y="145" as="sourcePoint" />
            <mxPoint x="154.81034482758605" y="145" as="targetPoint" />
            <Array as="points">
              <mxPoint x="280.5" y="145" />
            </Array>
          </mxGeometry>
        </mxCell>
        <mxCell id="HJIBpvxVfIBrpGYPyr1l-5" value="searchInternship(filtersData)" style="text;html=1;align=center;verticalAlign=middle;resizable=0;points=[];autosize=1;strokeColor=none;fillColor=none;" parent="1" vertex="1">
          <mxGeometry x="195" y="151" width="170" height="30" as="geometry" />
        </mxCell>
        <mxCell id="HJIBpvxVfIBrpGYPyr1l-8" value="" style="edgeStyle=elbowEdgeStyle;fontSize=12;html=1;endArrow=blockThin;endFill=1;rounded=0;" parent="1" edge="1">
          <mxGeometry width="160" relative="1" as="geometry">
            <mxPoint x="155" y="176" as="sourcePoint" />
            <mxPoint x="409.5" y="176" as="targetPoint" />
            <Array as="points">
              <mxPoint x="270" y="176" />
            </Array>
          </mxGeometry>
        </mxCell>
        <mxCell id="0QtaSWrWx8qJe-UsxeRv-7" value="alternative" style="shape=umlFrame;whiteSpace=wrap;html=1;pointerEvents=0;width=80;height=30;" parent="1" vertex="1">
          <mxGeometry x="112" y="250" width="868" height="340" as="geometry" />
        </mxCell>
        <mxCell id="0QtaSWrWx8qJe-UsxeRv-8" value="if checkFiltersData:" style="text;whiteSpace=wrap;html=1;" parent="1" vertex="1">
          <mxGeometry x="140" y="292" width="200" height="30" as="geometry" />
        </mxCell>
        <mxCell id="0QtaSWrWx8qJe-UsxeRv-11" value="else" style="text;html=1;align=center;verticalAlign=middle;resizable=0;points=[];autosize=1;strokeColor=none;fillColor=none;" parent="1" vertex="1">
          <mxGeometry x="112" y="457" width="50" height="30" as="geometry" />
        </mxCell>
        <mxCell id="0QtaSWrWx8qJe-UsxeRv-14" value="redirectToInternshipListPage(emptyList, message)" style="html=1;verticalAlign=bottom;endArrow=open;dashed=1;endSize=8;curved=0;rounded=0;" parent="1" edge="1">
          <mxGeometry x="-0.0028" relative="1" as="geometry">
            <mxPoint x="405" y="518" as="sourcePoint" />
            <mxPoint x="154.8939393939395" y="518" as="targetPoint" />
            <mxPoint as="offset" />
          </mxGeometry>
        </mxCell>
        <mxCell id="jOP6vSnSLnWGBxUfSvqk-1" value=":Object" style="shape=umlLifeline;perimeter=lifelinePerimeter;whiteSpace=wrap;html=1;container=1;dropTarget=0;collapsible=0;recursiveResize=0;outlineConnect=0;portConstraint=eastwest;newEdgeStyle={&quot;curved&quot;:0,&quot;rounded&quot;:0};" vertex="1" parent="1">
          <mxGeometry x="615" y="40" width="100" height="570" as="geometry" />
        </mxCell>
        <mxCell id="jOP6vSnSLnWGBxUfSvqk-26" value="" style="html=1;points=[[0,0,0,0,5],[0,1,0,0,-5],[1,0,0,0,5],[1,1,0,0,-5]];perimeter=orthogonalPerimeter;outlineConnect=0;targetShapes=umlLifeline;portConstraint=eastwest;newEdgeStyle={&quot;curved&quot;:0,&quot;rounded&quot;:0};" vertex="1" parent="jOP6vSnSLnWGBxUfSvqk-1">
          <mxGeometry x="45" y="150" width="10" height="310" as="geometry" />
        </mxCell>
        <mxCell id="jOP6vSnSLnWGBxUfSvqk-8" value="" style="html=1;points=[[0,0,0,0,5],[0,1,0,0,-5],[1,0,0,0,5],[1,1,0,0,-5]];perimeter=orthogonalPerimeter;outlineConnect=0;targetShapes=umlLifeline;portConstraint=eastwest;newEdgeStyle={&quot;curved&quot;:0,&quot;rounded&quot;:0};" vertex="1" parent="jOP6vSnSLnWGBxUfSvqk-1">
          <mxGeometry x="45" y="73" width="10" height="25" as="geometry" />
        </mxCell>
        <mxCell id="0QtaSWrWx8qJe-UsxeRv-21" value="" style="html=1;points=[[0,0,0,0,5],[0,1,0,0,-5],[1,0,0,0,5],[1,1,0,0,-5]];perimeter=orthogonalPerimeter;outlineConnect=0;targetShapes=umlLifeline;portConstraint=eastwest;newEdgeStyle={&quot;curved&quot;:0,&quot;rounded&quot;:0};direction=west;" parent="jOP6vSnSLnWGBxUfSvqk-1" vertex="1">
          <mxGeometry x="51" y="170" width="10" height="30" as="geometry" />
        </mxCell>
        <mxCell id="jOP6vSnSLnWGBxUfSvqk-2" value=":Object" style="shape=umlLifeline;perimeter=lifelinePerimeter;whiteSpace=wrap;html=1;container=1;dropTarget=0;collapsible=0;recursiveResize=0;outlineConnect=0;portConstraint=eastwest;newEdgeStyle={&quot;curved&quot;:0,&quot;rounded&quot;:0};" vertex="1" parent="1">
          <mxGeometry x="870" y="40" width="100" height="570" as="geometry" />
        </mxCell>
        <mxCell id="jOP6vSnSLnWGBxUfSvqk-3" value="" style="edgeStyle=elbowEdgeStyle;fontSize=12;html=1;endArrow=blockThin;endFill=1;rounded=0;" edge="1" parent="1">
          <mxGeometry width="160" relative="1" as="geometry">
            <mxPoint x="410" y="110" as="sourcePoint" />
            <mxPoint x="664.4" y="110" as="targetPoint" />
            <Array as="points">
              <mxPoint x="524.9" y="110" />
            </Array>
          </mxGeometry>
        </mxCell>
        <mxCell id="jOP6vSnSLnWGBxUfSvqk-5" value="API" style="shape=module;align=left;spacingLeft=20;align=center;verticalAlign=top;whiteSpace=wrap;html=1;" vertex="1" parent="1">
          <mxGeometry x="350" y="30" width="110" height="50" as="geometry" />
        </mxCell>
        <mxCell id="jOP6vSnSLnWGBxUfSvqk-6" value="SearchManager" style="shape=module;align=left;spacingLeft=20;align=center;verticalAlign=top;whiteSpace=wrap;html=1;" vertex="1" parent="1">
          <mxGeometry x="605" y="30" width="120" height="50" as="geometry" />
        </mxCell>
        <mxCell id="jOP6vSnSLnWGBxUfSvqk-7" value="Database" style="shape=module;align=left;spacingLeft=20;align=center;verticalAlign=top;whiteSpace=wrap;html=1;" vertex="1" parent="1">
          <mxGeometry x="860" y="30" width="110" height="50" as="geometry" />
        </mxCell>
        <mxCell id="jOP6vSnSLnWGBxUfSvqk-9" value="RequestPage" style="html=1;verticalAlign=bottom;endArrow=open;dashed=1;endSize=8;curved=0;rounded=0;" edge="1" parent="1">
          <mxGeometry relative="1" as="geometry">
            <mxPoint x="664.69" y="140" as="sourcePoint" />
            <mxPoint x="410.00034482758605" y="140" as="targetPoint" />
            <Array as="points">
              <mxPoint x="535.69" y="140" />
            </Array>
          </mxGeometry>
        </mxCell>
        <mxCell id="jOP6vSnSLnWGBxUfSvqk-10" value="&lt;span style=&quot;color: rgb(0, 0, 0); font-family: Helvetica; font-size: 12px; font-style: normal; font-variant-ligatures: normal; font-variant-caps: normal; font-weight: 400; letter-spacing: normal; orphans: 2; text-align: center; text-indent: 0px; text-transform: none; widows: 2; word-spacing: 0px; -webkit-text-stroke-width: 0px; white-space: nowrap; background-color: rgb(251, 251, 251); text-decoration-thickness: initial; text-decoration-style: initial; text-decoration-color: initial; display: inline !important; float: none;&quot;&gt;requestSearchPage()&lt;/span&gt;" style="text;whiteSpace=wrap;html=1;" vertex="1" parent="1">
          <mxGeometry x="470" y="85" width="150" height="40" as="geometry" />
        </mxCell>
        <mxCell id="jOP6vSnSLnWGBxUfSvqk-11" value="" style="edgeStyle=elbowEdgeStyle;fontSize=12;html=1;endArrow=blockThin;endFill=1;rounded=0;" edge="1" parent="1">
          <mxGeometry width="160" relative="1" as="geometry">
            <mxPoint x="666" y="319.5" as="sourcePoint" />
            <mxPoint x="920.4" y="319.5" as="targetPoint" />
            <Array as="points">
              <mxPoint x="780.9" y="319.5" />
            </Array>
          </mxGeometry>
        </mxCell>
        <mxCell id="jOP6vSnSLnWGBxUfSvqk-12" value="&lt;div style=&quot;text-align: center;&quot;&gt;&lt;span style=&quot;background-color: initial; text-wrap-mode: nowrap;&quot;&gt;getInternship(filtersData)&lt;/span&gt;&lt;/div&gt;" style="text;whiteSpace=wrap;html=1;" vertex="1" parent="1">
          <mxGeometry x="725" y="292" width="150" height="40" as="geometry" />
        </mxCell>
        <mxCell id="jOP6vSnSLnWGBxUfSvqk-13" value="&lt;span style=&quot;color: rgb(0, 0, 0); font-family: Helvetica; font-size: 12px; font-style: normal; font-variant-ligatures: normal; font-variant-caps: normal; font-weight: 400; letter-spacing: normal; orphans: 2; text-align: center; text-indent: 0px; text-transform: none; widows: 2; word-spacing: 0px; -webkit-text-stroke-width: 0px; white-space: nowrap; background-color: rgb(251, 251, 251); text-decoration-thickness: initial; text-decoration-style: initial; text-decoration-color: initial; display: inline !important; float: none;&quot;&gt;searchInternship(filtersData)&lt;/span&gt;" style="text;whiteSpace=wrap;html=1;" vertex="1" parent="1">
          <mxGeometry x="460" y="167" width="150" height="40" as="geometry" />
        </mxCell>
        <mxCell id="jOP6vSnSLnWGBxUfSvqk-15" value="" style="edgeStyle=elbowEdgeStyle;fontSize=12;html=1;endArrow=blockThin;endFill=1;rounded=0;" edge="1" parent="1">
          <mxGeometry width="160" relative="1" as="geometry">
            <mxPoint x="410.6" y="189.5" as="sourcePoint" />
            <mxPoint x="665" y="189.5" as="targetPoint" />
            <Array as="points">
              <mxPoint x="525.5" y="189.5" />
            </Array>
          </mxGeometry>
        </mxCell>
        <mxCell id="jOP6vSnSLnWGBxUfSvqk-17" value="alternative" style="shape=umlFrame;whiteSpace=wrap;html=1;pointerEvents=0;width=80;height=30;" vertex="1" parent="1">
          <mxGeometry x="120" y="332" width="820" height="198" as="geometry" />
        </mxCell>
        <mxCell id="jOP6vSnSLnWGBxUfSvqk-19" value="" style="html=1;verticalAlign=bottom;endArrow=open;dashed=1;endSize=8;curved=0;rounded=0;" edge="1" parent="1">
          <mxGeometry relative="1" as="geometry">
            <mxPoint x="916.69" y="390" as="sourcePoint" />
            <mxPoint x="662.0003448275861" y="390" as="targetPoint" />
            <Array as="points">
              <mxPoint x="787.69" y="390" />
            </Array>
          </mxGeometry>
        </mxCell>
        <mxCell id="jOP6vSnSLnWGBxUfSvqk-20" value="list" style="text;html=1;align=center;verticalAlign=middle;resizable=0;points=[];autosize=1;strokeColor=none;fillColor=none;" vertex="1" parent="1">
          <mxGeometry x="750" y="367" width="40" height="30" as="geometry" />
        </mxCell>
        <mxCell id="jOP6vSnSLnWGBxUfSvqk-18" value="if list != empty:" style="text;html=1;align=center;verticalAlign=middle;resizable=0;points=[];autosize=1;" vertex="1" parent="1">
          <mxGeometry x="140" y="367" width="100" height="30" as="geometry" />
        </mxCell>
        <mxCell id="jOP6vSnSLnWGBxUfSvqk-21" value="InternshipPage(internshipList)" style="html=1;verticalAlign=bottom;endArrow=open;dashed=1;endSize=8;curved=0;rounded=0;" edge="1" parent="1">
          <mxGeometry x="-0.0028" relative="1" as="geometry">
            <mxPoint x="665.33" y="419.5" as="sourcePoint" />
            <mxPoint x="410.66666666666663" y="419.5" as="targetPoint" />
            <mxPoint as="offset" />
          </mxGeometry>
        </mxCell>
        <mxCell id="jOP6vSnSLnWGBxUfSvqk-22" value="InternshipPage(empty)" style="html=1;verticalAlign=bottom;endArrow=open;dashed=1;endSize=8;curved=0;rounded=0;" edge="1" parent="1">
          <mxGeometry x="-0.0028" relative="1" as="geometry">
            <mxPoint x="662.33" y="501" as="sourcePoint" />
            <mxPoint x="407.66666666666663" y="501" as="targetPoint" />
            <mxPoint as="offset" />
          </mxGeometry>
        </mxCell>
        <mxCell id="jOP6vSnSLnWGBxUfSvqk-23" value="" style="html=1;verticalAlign=bottom;endArrow=open;dashed=1;endSize=8;curved=0;rounded=0;" edge="1" parent="1">
          <mxGeometry relative="1" as="geometry">
            <mxPoint x="918.69" y="490" as="sourcePoint" />
            <mxPoint x="664.0003448275861" y="490" as="targetPoint" />
            <Array as="points">
              <mxPoint x="789.69" y="490" />
            </Array>
          </mxGeometry>
        </mxCell>
        <mxCell id="jOP6vSnSLnWGBxUfSvqk-24" value="emptyList" style="text;html=1;align=center;verticalAlign=middle;resizable=0;points=[];autosize=1;strokeColor=none;fillColor=none;" vertex="1" parent="1">
          <mxGeometry x="735" y="465" width="70" height="30" as="geometry" />
        </mxCell>
        <mxCell id="jOP6vSnSLnWGBxUfSvqk-25" value="" style="html=1;points=[[0,0,0,0,5],[0,1,0,0,-5],[1,0,0,0,5],[1,1,0,0,-5]];perimeter=orthogonalPerimeter;outlineConnect=0;targetShapes=umlLifeline;portConstraint=eastwest;newEdgeStyle={&quot;curved&quot;:0,&quot;rounded&quot;:0};" vertex="1" parent="1">
          <mxGeometry x="915" y="322" width="10" height="168" as="geometry" />
        </mxCell>
        <mxCell id="0QtaSWrWx8qJe-UsxeRv-4" value="checkFiltersData(filtersData)" style="html=1;align=left;spacingLeft=2;endArrow=block;rounded=0;edgeStyle=orthogonalEdgeStyle;curved=0;rounded=0;" parent="1" edge="1">
          <mxGeometry x="-1" y="65" relative="1" as="geometry">
            <mxPoint x="672" y="202.97" as="sourcePoint" />
            <Array as="points">
              <mxPoint x="672" y="200" />
              <mxPoint x="692" y="200" />
              <mxPoint x="692" y="228" />
            </Array>
            <mxPoint y="7" as="offset" />
            <mxPoint x="677" y="228.0044827586207" as="targetPoint" />
          </mxGeometry>
        </mxCell>
        <mxCell id="jOP6vSnSLnWGBxUfSvqk-27" value="SearchPage" style="html=1;verticalAlign=bottom;endArrow=open;dashed=1;endSize=8;curved=0;rounded=0;" edge="1" parent="1">
          <mxGeometry x="-0.0026" relative="1" as="geometry">
            <mxPoint x="668.33" y="570" as="sourcePoint" />
            <mxPoint x="413.66666666666663" y="570" as="targetPoint" />
            <mxPoint as="offset" />
          </mxGeometry>
        </mxCell>
      </root>
    </mxGraphModel>
  </diagram>
</mxfile>
